<?xml version="1.0" standalone="no"?>
<!DOCTYPE svg PUBLIC "-//W3C//DTD SVG 20010904//EN"
 "http://www.w3.org/TR/2001/REC-SVG-20010904/DTD/svg10.dtd">
<svg version="1.0" xmlns="http://www.w3.org/2000/svg"
 width="325.000000pt" height="320.000000pt" viewBox="0 0 325.000000 320.000000"
 preserveAspectRatio="xMidYMid meet">

<g transform="translate(0.000000,320.000000) scale(0.100000,-0.100000)"
fill="#000000" stroke="none">
<path d="M1517 3023 c-88 -52 -124 -57 -217 -29 -101 30 -139 19 -208 -63 -24
-28 -56 -58 -71 -65 -15 -8 -73 -19 -129 -24 -121 -11 -129 -16 -178 -117 -44
-89 -67 -109 -156 -136 -103 -30 -132 -62 -148 -161 -16 -96 -35 -129 -105
-173 -30 -19 -66 -48 -81 -63 -26 -27 -26 -29 -20 -135 6 -117 -1 -144 -49
-197 -41 -45 -75 -102 -75 -127 0 -14 14 -58 30 -100 38 -94 38 -128 -1 -223
-40 -96 -36 -125 27 -200 69 -83 75 -103 68 -219 -8 -121 -5 -128 94 -195 80
-54 94 -77 113 -186 16 -96 38 -118 145 -154 45 -14 90 -35 102 -46 11 -11 39
-55 62 -99 51 -97 74 -111 185 -111 91 0 111 -9 185 -85 86 -89 95 -91 206
-65 107 26 140 23 208 -20 41 -26 56 -30 121 -30 66 0 81 4 138 35 73 40 94
42 197 15 41 -11 87 -18 102 -15 14 4 55 35 90 71 83 86 100 94 195 94 110 0
137 16 188 113 54 101 68 114 141 137 130 40 147 57 169 176 18 93 31 115 92
157 120 82 128 100 113 223 -11 89 -2 120 58 193 74 87 78 117 32 221 -37 85
-37 110 0 203 38 96 38 133 0 183 -97 129 -92 118 -91 180 0 31 3 76 7 99 10
68 -13 106 -96 161 -73 49 -110 98 -110 146 0 13 -7 48 -15 78 -18 68 -43 90
-139 119 -88 27 -117 53 -157 136 -45 97 -67 110 -185 119 -56 4 -108 13 -120
21 -11 7 -50 43 -86 79 -75 76 -81 78 -215 46 l-84 -21 -52 25 c-29 14 -72 37
-97 51 -63 35 -93 32 -183 -22z m343 -178 c561 -91 1009 -531 1104 -1084 21
-124 21 -371 0 -481 -49 -262 -178 -504 -369 -695 -300 -300 -695 -436 -1115
-385 -480 59 -898 389 -1081 852 -54 138 -71 234 -76 438 -4 173 -2 207 17
300 96 469 436 851 896 1006 182 61 427 80 624 49z"/>
<path d="M1525 2749 c-647 -72 -1131 -630 -1102 -1268 26 -585 434 -1056 1009
-1166 122 -23 330 -21 457 5 504 103 894 506 976 1010 86 535 -202 1078 -696
1309 -195 92 -439 133 -644 110z m255 -69 c403 -50 735 -285 916 -650 87 -177
120 -340 111 -560 -12 -310 -130 -567 -360 -786 -198 -188 -415 -288 -690
-316 -284 -29 -583 57 -817 237 -73 56 -197 187 -247 261 -174 256 -241 578
-182 880 114 593 676 1006 1269 934z"/>
<path d="M1607 2330 l6 -40 -47 0 c-41 0 -46 2 -46 23 0 13 5 28 12 35 9 9 6
12 -15 12 -25 0 -26 -2 -19 -32 4 -18 7 -54 7 -80 0 -45 2 -48 25 -47 14 0 19
3 13 6 -7 2 -13 18 -13 33 0 25 5 30 34 36 47 8 59 -2 53 -41 -5 -30 -3 -32
20 -27 17 3 21 7 12 12 -17 11 -25 116 -9 135 11 13 9 15 -13 15 -24 0 -25 -2
-20 -40z"/>
<path d="M1710 2295 c5 -80 11 -90 52 -100 36 -9 78 31 78 74 0 16 4 41 10 55
5 15 6 26 1 26 -5 0 -18 3 -28 7 -15 6 -16 4 -5 -9 13 -17 8 -87 -10 -120 -11
-23 -64 -24 -72 -2 -10 25 -7 112 4 119 18 11 11 25 -12 25 -22 0 -23 -2 -18
-75z"/>
<path d="M1926 2325 c8 -21 -14 -106 -32 -126 -13 -15 -13 -17 4 -21 15 -4 19
0 19 21 0 14 7 42 15 60 l14 35 30 -73 c16 -40 33 -73 38 -74 5 -1 17 27 27
63 11 36 23 66 29 68 14 5 2 22 -16 22 -8 0 -12 -4 -9 -10 6 -10 -13 -88 -24
-102 -4 -4 -17 20 -31 55 -24 62 -46 97 -61 97 -5 0 -6 -7 -3 -15z"/>
<path d="M1254 2304 l-41 -15 21 -41 c11 -23 20 -59 21 -80 0 -33 3 -37 20
-32 82 25 105 48 105 103 0 29 -29 71 -49 71 -5 0 -15 2 -23 4 -7 3 -31 -2
-54 -10z m83 -26 c42 -40 21 -118 -32 -118 -19 0 -25 10 -40 61 -14 51 -14 63
-3 70 23 15 51 10 75 -13z"/>
<path d="M2126 2263 c-9 -22 -8 -23 17 -23 13 0 26 -3 30 -6 9 -9 -41 -104
-58 -111 -22 -8 -18 -18 11 -32 23 -10 26 -10 20 4 -6 16 35 108 53 120 6 3
19 -3 30 -14 19 -19 31 -18 31 4 0 7 -12 15 -27 18 -16 3 -45 17 -65 30 -30
21 -37 23 -42 10z"/>
<path d="M1059 2211 c-37 -38 -39 -82 -4 -116 50 -50 130 -23 142 47 5 32 1
41 -25 68 -39 39 -74 39 -113 1z m100 -17 c38 -48 17 -114 -35 -114 -48 0 -95
95 -62 128 22 22 75 14 97 -14z"/>
<path d="M2304 2163 c7 -23 -47 -101 -77 -112 -18 -7 -16 -10 19 -32 22 -13
44 -27 50 -31 7 -4 18 0 25 9 12 14 11 15 -7 9 -30 -9 -60 25 -44 53 14 26 35
27 53 1 8 -11 17 -17 20 -13 12 11 8 23 -7 23 -7 0 -19 6 -25 14 -9 10 -7 19
8 37 16 20 21 21 35 10 9 -7 16 -21 16 -29 0 -13 2 -14 13 -3 10 10 6 17 -18
37 -16 14 -38 30 -48 35 -16 9 -18 8 -13 -8z"/>
<path d="M914 2120 c-50 -20 -69 -85 -38 -128 52 -75 169 -21 149 69 -11 49
-66 78 -111 59z m70 -35 c44 -41 26 -115 -29 -115 -27 0 -75 42 -76 67 -5 71
52 97 105 48z"/>
<path d="M2444 2061 c8 -12 -72 -101 -91 -101 -14 0 -13 -3 3 -21 17 -19 19
-19 25 -2 15 37 76 96 93 90 38 -15 6 -70 -34 -60 -25 7 -38 -74 -16 -96 14
-13 15 -11 10 20 -6 40 1 51 41 64 41 14 45 49 9 86 -26 27 -52 40 -40 20z"/>
<path d="M757 1979 c-41 -45 -43 -49 -24 -49 15 0 92 -70 99 -90 3 -11 9 -10
28 8 23 21 23 22 3 22 -25 0 -60 37 -47 49 5 5 18 11 29 13 19 5 19 5 1 13
-13 6 -23 3 -32 -10 -14 -19 -41 -14 -50 10 -8 20 11 43 38 47 19 3 19 5 6 15
-12 11 -21 6 -51 -28z"/>
<path d="M1125 1994 c39 -29 155 -127 155 -131 0 -2 -10 3 -23 12 -13 8 -26
13 -29 10 -3 -3 -42 9 -87 26 -45 17 -84 30 -86 28 -14 -15 -92 -235 -88 -249
3 -13 30 -28 81 -46 139 -50 138 -48 22 -54 -58 -3 -111 -9 -117 -13 -21 -13
-16 -65 7 -77 28 -15 297 -2 314 16 8 7 35 15 62 17 l49 3 -53 2 c-33 1 -51 6
-47 12 3 6 44 9 93 9 48 -1 74 -4 57 -7 -30 -5 -30 -5 -5 -11 14 -4 26 -15 28
-24 4 -21 -113 -77 -160 -77 -38 0 -268 -95 -286 -118 -18 -23 -11 -66 11 -70
38 -8 287 101 294 128 3 10 18 24 34 31 16 6 28 14 25 16 -2 3 -14 0 -25 -7
-12 -6 -21 -7 -21 -3 0 5 27 20 60 35 63 28 83 24 28 -6 -29 -15 -18 -14 20 1
9 4 12 -11 12 -55 l0 -61 53 -10 c213 -43 249 -48 254 -34 3 7 13 43 22 79
l17 66 56 -46 c31 -25 60 -46 65 -46 4 0 -3 9 -17 20 -14 11 -20 20 -14 20 12
0 41 -29 45 -45 10 -55 19 -65 135 -153 118 -90 147 -99 152 -47 3 37 2 38
-83 106 -115 92 -145 112 -166 114 -25 2 -171 114 -163 126 2 4 16 4 31 -2 14
-5 28 -8 30 -5 2 2 -10 9 -28 15 -18 6 -30 13 -27 16 6 6 160 -49 187 -66 12
-8 9 -9 -14 -5 l-30 5 33 -14 c17 -8 32 -21 32 -29 0 -7 21 -23 48 -34 84 -35
242 -84 256 -79 7 3 17 18 20 33 10 38 -8 52 -115 88 -46 16 -88 33 -94 37 -5
5 45 9 113 9 l122 0 0 53 c0 30 -3 96 -7 147 l-6 92 -43 -5 c-29 -3 -41 -1
-37 6 4 7 -2 8 -18 3 -52 -17 -85 -18 -98 -3 -10 13 -7 15 27 10 27 -4 54 1
87 16 66 29 49 39 -19 11 -34 -14 -61 -20 -73 -15 -14 6 -7 13 40 35 32 16 62
31 65 35 9 8 -40 -10 -79 -30 -17 -9 -35 -15 -41 -13 -7 3 18 17 55 33 37 15
67 32 67 37 0 11 0 11 -73 -22 -76 -34 -77 -35 -77 -17 0 8 10 19 23 26 22 11
22 11 -3 6 -14 -3 4 10 40 29 77 41 60 48 -20 8 -48 -24 -55 -31 -58 -60 -3
-26 -11 -36 -42 -52 -49 -25 -60 -25 -60 -1 0 24 -44 78 -70 86 -12 4 -20 15
-20 30 0 12 -8 32 -17 44 -32 38 -178 65 -223 41 -14 -7 -33 -7 -64 1 -40 10
-51 9 -89 -10 -29 -14 -63 -21 -101 -21 -47 0 -61 -4 -81 -25 -14 -13 -25 -36
-25 -50 l0 -26 -32 26 c-82 66 -176 135 -184 135 -5 0 0 -7 11 -16z m538 -34
c5 0 5 -6 1 -12 -4 -7 4 -3 18 10 29 26 69 28 148 7 59 -16 90 -43 90 -81 0
-14 6 -24 14 -24 22 0 73 -65 80 -103 14 -74 -34 -122 -135 -133 l-56 -6 -16
-72 c-9 -39 -26 -113 -38 -163 -11 -52 -26 -93 -32 -93 -7 0 -70 11 -142 25
-71 14 -129 25 -130 25 0 0 2 71 3 158 l4 157 -47 23 c-44 21 -47 25 -41 53 4
22 0 38 -14 57 -31 42 -36 92 -12 122 16 20 30 25 86 28 36 2 82 12 101 22 27
14 44 16 73 9 20 -5 41 -9 45 -9z m-488 -78 l100 -38 -3 -40 c-4 -55 -58 -164
-81 -164 -37 0 -206 68 -203 82 7 32 74 198 80 198 4 0 52 -17 107 -38z m160
-72 c-2 -4 6 -17 19 -29 16 -16 21 -29 18 -51 -5 -35 -4 -35 -57 -14 l-41 15
10 45 c9 37 14 44 30 40 17 -4 16 -3 -3 15 -11 11 -21 23 -21 26 0 4 11 -4 25
-17 13 -12 22 -26 20 -30z m795 -36 c0 -8 -91 -46 -97 -41 -3 3 15 14 39 25
46 22 58 25 58 16z m14 -29 c4 -10 -1 -15 -14 -15 -25 0 -40 -29 -40 -80 0
-24 -5 -42 -12 -45 -24 -7 -248 -11 -248 -4 0 3 26 9 58 13 69 8 120 36 133
75 7 19 24 34 57 48 59 26 59 26 66 8z m201 -37 c2 -7 5 -59 8 -115 l4 -103
-118 0 -117 0 -6 28 c-14 75 -17 116 -11 151 6 38 8 40 48 44 103 9 188 7 192
-5z m-974 -30 c82 -31 86 -34 87 -64 l1 -32 -85 -7 c-59 -5 -89 -4 -97 4 -6 6
-26 11 -44 11 l-32 0 31 50 c17 28 35 50 40 50 5 0 6 5 3 10 -10 16 4 13 96
-22z m713 -98 c-5 -5 -47 -11 -94 -13 l-85 -3 90 -2 90 -2 11 -42 c6 -24 14
-51 18 -60 7 -16 5 -17 -23 -7 -18 6 -40 9 -51 6 -24 -6 -212 63 -218 81 -2 7
7 12 25 13 l28 1 -30 8 c-44 10 -14 19 80 23 44 2 100 4 125 5 28 1 41 -1 34
-8z m-213 -187 c10 -13 6 -12 -17 4 -17 12 -37 30 -45 40 -10 13 -6 12 17 -4
17 -12 37 -30 45 -40z"/>
<path d="M1510 1419 c0 -9 6 -10 94 -29 76 -17 64 -5 -19 17 -41 11 -75 16
-75 12z"/>
<path d="M2200 1670 c0 -5 24 -10 54 -10 30 0 58 5 61 10 4 6 -17 10 -54 10
-34 0 -61 -4 -61 -10z"/>
<path d="M2200 1610 c0 -6 27 -10 60 -10 33 0 60 4 60 10 0 6 -27 10 -60 10
-33 0 -60 -4 -60 -10z"/>
<path d="M2210 1545 c0 -16 53 -21 97 -9 39 11 14 24 -43 24 -41 0 -54 -4 -54
-15z"/>
<path d="M1300 1680 c8 -5 20 -10 25 -10 6 0 3 5 -5 10 -8 5 -19 10 -25 10 -5
0 -3 -5 5 -10z"/>
<path d="M1380 1650 c8 -5 20 -10 25 -10 6 0 3 5 -5 10 -8 5 -19 10 -25 10 -5
0 -3 -5 5 -10z"/>
<path d="M1120 1976 c0 -2 8 -10 18 -17 15 -13 16 -12 3 4 -13 16 -21 21 -21
13z"/>
<path d="M1175 1931 c19 -22 55 -46 55 -38 0 3 -17 17 -37 33 -31 23 -34 24
-18 5z"/>
<path d="M2210 1875 c-14 -8 -20 -14 -15 -14 6 0 21 6 35 14 14 8 21 14 15 14
-5 0 -21 -6 -35 -14z"/>
<path d="M2285 1760 c-3 -5 -2 -10 4 -10 5 0 13 5 16 10 3 6 2 10 -4 10 -5 0
-13 -4 -16 -10z"/>
<path d="M1890 1462 c8 -5 26 -13 40 -16 17 -5 20 -4 10 2 -8 5 -26 13 -40 16
-17 5 -20 4 -10 -2z"/>
<path d="M1973 1054 c-6 -11 -20 -45 -33 -77 -12 -31 -30 -62 -39 -67 -12 -7
-8 -9 19 -10 23 0 30 3 21 9 -21 13 4 51 35 51 29 0 42 -24 24 -45 -11 -13 -8
-15 19 -15 30 0 31 1 17 23 -7 12 -19 45 -25 72 -16 68 -26 83 -38 59z m17
-59 c0 -16 -6 -25 -15 -25 -15 0 -21 31 -8 43 13 14 23 6 23 -18z"/>
<path d="M910 1041 c14 -27 13 -114 -2 -129 -9 -9 -4 -12 23 -11 18 0 28 3 22
6 -19 7 -18 143 1 143 36 0 45 -61 10 -74 -23 -9 31 -76 60 -75 l21 0 -21 11
c-12 5 -27 21 -34 33 -11 20 -10 26 4 40 37 38 12 75 -51 75 -40 0 -43 -2 -33
-19z"/>
<path d="M1070 1050 c20 -13 19 -128 -1 -141 -9 -6 9 -9 49 -9 51 0 62 3 62
16 0 13 -3 14 -14 4 -24 -19 -61 -8 -64 19 -2 13 1 28 7 34 7 7 7 15 1 22 -14
16 0 55 19 55 9 0 22 -5 29 -12 9 -9 12 -8 12 5 0 14 -10 17 -57 17 -41 0 -54
-3 -43 -10z"/>
<path d="M1257 1046 c-29 -22 -41 -70 -25 -103 26 -55 117 -68 126 -19 4 18 2
18 -23 -2 -28 -22 -36 -21 -67 6 -24 20 -24 84 0 105 23 21 71 22 78 2 4 -8
10 -12 16 -9 5 3 4 11 -3 20 -14 18 -78 18 -102 0z"/>
<path d="M1415 980 c0 -78 1 -80 25 -80 19 0 21 3 12 12 -7 7 -12 37 -12 68 0
31 5 61 12 68 9 9 7 12 -12 12 -24 0 -25 -2 -25 -80z"/>
<path d="M1519 1018 c4 -24 4 -60 0 -80 -5 -35 -4 -38 18 -38 20 0 22 3 13 19
-5 11 -10 35 -10 53 0 71 21 97 50 63 10 -12 9 -20 -4 -40 -19 -29 -7 -34 17
-7 36 39 14 72 -48 72 l-42 0 6 -42z"/>
<path d="M1668 1053 c16 -6 16 -125 0 -141 -9 -9 2 -12 50 -12 51 0 62 3 62
16 0 13 -3 14 -14 4 -23 -19 -61 -8 -64 18 -2 13 2 30 8 38 9 10 9 14 1 14
-17 0 -13 50 5 57 9 3 25 1 35 -6 15 -9 19 -8 19 4 0 12 -13 15 -57 14 -32 0
-52 -3 -45 -6z"/>
<path d="M2100 1041 c14 -27 13 -114 -2 -129 -9 -9 -4 -12 23 -12 23 0 30 3
21 9 -14 9 -20 126 -8 139 10 9 40 -12 44 -30 2 -9 -5 -23 -14 -33 -17 -16
-17 -17 2 -13 10 2 23 15 28 30 14 39 -6 58 -61 58 -40 0 -43 -2 -33 -19z"/>
<path d="M2248 1048 c7 -7 12 -37 12 -68 0 -31 -5 -61 -12 -68 -9 -9 -4 -12
23 -11 18 0 28 3 22 6 -18 7 -18 143 0 143 35 0 50 -52 20 -69 -15 -9 -15 -10
-2 -11 21 0 39 20 39 45 0 32 -20 45 -69 45 -35 0 -42 -3 -33 -12z"/>
<path d="M1151 986 c-9 -10 -8 -15 4 -20 10 -4 15 1 15 14 0 24 -4 25 -19 6z"/>
<path d="M1751 986 c-9 -10 -8 -15 4 -20 10 -4 15 1 15 14 0 24 -4 25 -19 6z"/>
<path d="M1086 727 c3 -10 9 -15 12 -12 3 3 0 11 -7 18 -10 9 -11 8 -5 -6z"/>
<path d="M1112 715 c0 -16 2 -22 5 -12 2 9 2 23 0 30 -3 6 -5 -1 -5 -18z"/>
<path d="M1151 727 c-1 -12 -5 -16 -13 -11 -8 5 -7 0 2 -11 14 -16 15 -17 18
-1 2 9 1 22 -1 29 -3 7 -6 4 -6 -6z"/>
<path d="M1662 715 c0 -16 2 -22 5 -12 2 9 2 23 0 30 -3 6 -5 -1 -5 -18z"/>
<path d="M2186 707 c3 -10 9 -15 12 -12 3 3 0 11 -7 18 -10 9 -11 8 -5 -6z"/>
<path d="M2220 711 c0 -6 4 -13 10 -16 6 -3 7 1 4 9 -7 18 -14 21 -14 7z"/>
<path d="M1368 703 c6 -2 18 -2 25 0 6 3 1 5 -13 5 -14 0 -19 -2 -12 -5z"/>
<path d="M1182 615 c0 -16 2 -22 5 -12 2 9 2 23 0 30 -3 6 -5 -1 -5 -18z"/>
<path d="M1272 615 c0 -16 2 -22 5 -12 2 9 2 23 0 30 -3 6 -5 -1 -5 -18z"/>
<path d="M1142 610 c0 -14 2 -19 5 -12 2 6 2 18 0 25 -3 6 -5 1 -5 -13z"/>
</g>
</svg>
